<?xml version="1.0" encoding="UTF-8"?> <svg xmlns="http://www.w3.org/2000/svg" viewBox="0 0 580.44 52.27"><g data-name="Слой 2"><path d="M35.11 13.46C35.11 5.8 28 1.08 19.25 1.08H0V51.2h22c8.77 0 15.12-6 15.12-13.46C37.1 31.86 32.89 27 27.29 25c4.58-2.15 7.82-6.58 7.82-11.53zM7.37 45.32V28.21H20.5c5.09 0 9.22 3.73 9.22 8.52s-4.13 8.59-9.22 8.59zM28 14.69c0 4.36-4 7.87-8.42 7.87H7.37V7h12.24C24.05 7 28 10.38 28 14.69zm25.76 17.68h8.56L76 51.2h8.26L70 31.65c7.89-1.57 12.91-7.66 12.91-15 0-8.81-6.12-15.61-17-15.61H46.39V51.2h7.37zM65.49 7.66c6.64 0 10.25 3.66 10.25 9s-3.61 9.16-10.25 9.16H53.76V7.66zm27.57-6.58h7.38V51.2h-7.38zm38.56 29.64h17.77V41.6a20.36 20.36 0 01-12.61 4.09c-12.24 0-19.78-8.89-19.78-19.56 0-10.95 7.68-19.33 20.21-19.33a23.9 23.9 0 0112.69 3.37l3.32-5.81A31.29 31.29 0 00136.78 0c-17.18 0-27.36 11.6-27.36 26.13s10.18 26.14 27.36 26.14a30.51 30.51 0 0019.84-6.72V25.21h-25zm66.79 20.48h7.39V1.08h-7.39V22H172.9V1.08h-7.38V51.2h7.38V28.49h25.51zm54.44-50.12h-39.37v6.58h16V51.2h7.39V7.66h16zm33.56 31.29h12.11c10.32 0 17.26-6.8 17.26-15.61s-6.35-15.68-17.26-15.68H279V51.2h7.37zm11.73-24.71c6.65 0 10.25 3.66 10.25 9s-3.6 9.16-10.25 9.16h-11.73V7.66zm44.04-6.58h-8.42L314.07 51.2h7.38l4.87-12.31h23.23l4.94 12.31h7.38zM338 9.31l9.36 23.56h-18.83zm60.07-8.23h-39.39v6.58h16V51.2h7.37V7.66h16zm43.08 0h-39.4v6.58h16V51.2h7.38V7.66h16zm42.25 43.74h-27.13V28.49h23.52v-6.22h-23.52V7.52h26.62V1.08h-34V51.2h34.51zm16.66-12.45h8.55l13.64 18.83h8.27l-14.23-19.55c7.88-1.57 12.9-7.66 12.9-15 0-8.81-6.12-15.61-17-15.61h-19.51V51.2h7.38zm11.72-24.71c6.65 0 10.25 3.66 10.25 9s-3.6 9.16-10.25 9.16h-11.72V7.66zm34.96 5.45l26.33 38.09h7.37V1.08h-7.3v38.23l-26.4-38.23h-7.39V51.2h7.39z" fill="#e03452"></path><path d="M406.07 28.33a7.52 7.52 0 11-7.52-7.49 7.53 7.53 0 017.52 7.49" fill="#58595b"></path></g></svg> 